<svg width="131" height="292" viewBox="0 0 131 292" fill="none" xmlns="http://www.w3.org/2000/svg">
<path d="M128.44 116.34C113.13 48.7999 81.2202 30.8199 73.0802 18.1099C69.7237 12.5109 66.7502 6.69089 64.1802 0.689941C63.7502 6.68994 62.9602 10.4699 57.8602 15.0199C47.6202 24.1499 4.13023 59.5899 0.470228 136.33C-2.93977 207.88 53.0702 252 60.4702 256.56C66.1602 259.36 73.0902 256.62 76.4702 254.05C103.47 235.52 140.36 186.12 128.47 116.34" fill="#10AA50"/>
<path d="M66.5 218.46C65.09 236.17 64.08 246.46 60.5 256.58C60.5 256.58 62.85 273.44 64.5 291.3H70.34C71.733 278.723 73.86 266.239 76.71 253.91C69.15 250.19 66.79 234 66.5 218.46Z" fill="#B8C4C2"/>
<path d="M76.7001 253.92C69.0601 250.39 66.8501 233.86 66.5101 218.46C68.3995 193.057 68.9503 167.571 68.1601 142.11C67.7601 128.75 68.3501 18.37 64.8701 2.20996C67.2506 7.68319 69.9934 12.9916 73.0801 18.1C81.2201 30.82 113.14 48.8 128.44 116.34C140.36 186 103.67 235.27 76.7001 253.92Z" fill="#12924F"/>
</svg>
